<svg width="362" height="69" viewBox="0 0 362 69" fill="none" xmlns="http://www.w3.org/2000/svg">
<path d="M91.9108 56.5001C91.4842 56.5001 91.1215 56.3721 90.8228 56.1161C90.5668 55.8601 90.4388 55.5187 90.4388 55.0921V13.1721C90.4388 12.7027 90.5668 12.3401 90.8228 12.0841C91.1215 11.8281 91.4842 11.7001 91.9108 11.7001H93.5108C93.9375 11.7001 94.2575 11.8067 94.4708 12.0201C94.6842 12.2334 94.8122 12.4041 94.8548 12.5321L109.383 40.8201L123.975 12.5321C124.06 12.4041 124.188 12.2334 124.359 12.0201C124.572 11.8067 124.892 11.7001 125.319 11.7001H126.855C127.324 11.7001 127.687 11.8281 127.943 12.0841C128.199 12.3401 128.327 12.7027 128.327 13.1721V55.0921C128.327 55.5187 128.199 55.8601 127.943 56.1161C127.687 56.3721 127.324 56.5001 126.855 56.5001H125.703C125.276 56.5001 124.935 56.3721 124.679 56.1161C124.423 55.8601 124.295 55.5187 124.295 55.0921V20.4041L112.071 44.4681C111.9 44.8947 111.644 45.2147 111.303 45.4281C111.004 45.6414 110.599 45.7481 110.087 45.7481H108.679C108.167 45.7481 107.762 45.6414 107.463 45.4281C107.164 45.2147 106.908 44.8947 106.695 44.4681L94.4708 20.4041V55.0921C94.4708 55.5187 94.3428 55.8601 94.0868 56.1161C93.8308 56.3721 93.4895 56.5001 93.0628 56.5001H91.9108Z" fill="#D34135"/>
<path d="M149.976 57.1401C145.838 57.1401 142.552 55.7961 140.12 53.1081C137.688 50.3774 136.302 46.8147 135.96 42.4201C135.918 41.7801 135.896 40.9267 135.896 39.8601C135.896 38.7934 135.918 37.9401 135.96 37.3001C136.174 34.3987 136.856 31.8387 138.008 29.6201C139.16 27.4014 140.739 25.6734 142.744 24.4361C144.792 23.1987 147.203 22.5801 149.976 22.5801C152.963 22.5801 155.502 23.2414 157.592 24.5641C159.683 25.8867 161.283 27.7854 162.392 30.2601C163.544 32.7347 164.12 35.6787 164.12 39.0921V40.0521C164.12 40.4787 163.971 40.8201 163.672 41.0761C163.416 41.3321 163.075 41.4601 162.648 41.4601H139.864C139.864 41.4601 139.864 41.5454 139.864 41.7161C139.864 41.8867 139.864 42.0147 139.864 42.1001C139.95 44.0201 140.398 45.8547 141.208 47.6041C142.019 49.3107 143.171 50.7187 144.664 51.8281C146.158 52.8947 147.928 53.4281 149.976 53.4281C151.811 53.4281 153.326 53.1507 154.52 52.5961C155.758 52.0414 156.739 51.4441 157.464 50.8041C158.19 50.1214 158.659 49.6094 158.872 49.2681C159.256 48.7134 159.555 48.3934 159.768 48.3081C159.982 48.1801 160.323 48.1161 160.792 48.1161H161.816C162.2 48.1161 162.52 48.2441 162.776 48.5001C163.075 48.7134 163.203 49.0121 163.16 49.3961C163.118 49.9934 162.776 50.7401 162.136 51.6361C161.539 52.4894 160.664 53.3427 159.512 54.1961C158.403 55.0494 157.038 55.7534 155.416 56.3081C153.795 56.8627 151.982 57.1401 149.976 57.1401ZM139.864 37.8761H160.216V37.6201C160.216 35.4867 159.811 33.5667 159 31.8601C158.19 30.1534 157.016 28.8094 155.48 27.8281C153.944 26.8041 152.11 26.2921 149.976 26.2921C147.843 26.2921 146.008 26.8041 144.472 27.8281C142.979 28.8094 141.827 30.1534 141.016 31.8601C140.248 33.5667 139.864 35.4867 139.864 37.6201V37.8761Z" fill="#D34135"/>
<path d="M182.674 57.1401C180.199 57.1401 178.087 56.6921 176.338 55.7961C174.631 54.9001 173.245 53.7054 172.178 52.2121C171.111 50.7187 170.322 49.0547 169.81 47.2201C169.341 45.3854 169.063 43.5294 168.978 41.6521C168.935 41.0121 168.914 40.4147 168.914 39.8601C168.914 39.3054 168.935 38.7081 168.978 38.0681C169.063 36.1907 169.341 34.3347 169.81 32.5001C170.322 30.6654 171.111 29.0014 172.178 27.5081C173.245 26.0147 174.631 24.8201 176.338 23.9241C178.087 23.0281 180.199 22.5801 182.674 22.5801C185.319 22.5801 187.495 23.0707 189.202 24.0521C190.951 25.0334 192.359 26.2281 193.426 27.6361V12.4681C193.426 12.0414 193.554 11.7001 193.81 11.4441C194.066 11.1881 194.407 11.0601 194.834 11.0601H195.922C196.349 11.0601 196.69 11.1881 196.946 11.4441C197.202 11.7001 197.33 12.0414 197.33 12.4681V55.0921C197.33 55.5187 197.202 55.8601 196.946 56.1161C196.69 56.3721 196.349 56.5001 195.922 56.5001H194.834C194.407 56.5001 194.066 56.3721 193.81 56.1161C193.554 55.8601 193.426 55.5187 193.426 55.0921V52.0841C192.359 53.5347 190.951 54.7507 189.202 55.7321C187.495 56.6707 185.319 57.1401 182.674 57.1401ZM183.058 53.4281C185.49 53.4281 187.453 52.8521 188.946 51.7001C190.439 50.5481 191.549 49.1187 192.274 47.4121C192.999 45.6627 193.383 43.9134 193.426 42.1641C193.469 41.5241 193.49 40.6921 193.49 39.6681C193.49 38.6441 193.469 37.8121 193.426 37.1721C193.383 35.4654 192.978 33.7801 192.21 32.1161C191.485 30.4521 190.375 29.0654 188.882 27.9561C187.389 26.8467 185.447 26.2921 183.058 26.2921C180.583 26.2921 178.599 26.8467 177.106 27.9561C175.655 29.0654 174.61 30.5161 173.97 32.3081C173.33 34.1001 172.967 36.0201 172.882 38.0681C172.839 39.2627 172.839 40.4574 172.882 41.6521C172.967 43.7001 173.33 45.6201 173.97 47.4121C174.61 49.2041 175.655 50.6547 177.106 51.7641C178.599 52.8734 180.583 53.4281 183.058 53.4281Z" fill="#D34135"/>
<path d="M207.255 56.5001C206.828 56.5001 206.487 56.3721 206.231 56.1161C205.975 55.8601 205.847 55.5187 205.847 55.0921V24.6281C205.847 24.2014 205.975 23.8601 206.231 23.6041C206.487 23.3481 206.828 23.2201 207.255 23.2201H208.343C208.77 23.2201 209.111 23.3481 209.367 23.6041C209.623 23.8601 209.751 24.2014 209.751 24.6281V55.0921C209.751 55.5187 209.623 55.8601 209.367 56.1161C209.111 56.3721 208.77 56.5001 208.343 56.5001H207.255ZM206.551 16.3721C206.124 16.3721 205.783 16.2441 205.527 15.9881C205.271 15.7321 205.143 15.3907 205.143 14.9641V12.5321C205.143 12.1054 205.271 11.7641 205.527 11.5081C205.783 11.2094 206.124 11.0601 206.551 11.0601H208.983C209.41 11.0601 209.751 11.2094 210.007 11.5081C210.306 11.7641 210.455 12.1054 210.455 12.5321V14.9641C210.455 15.3907 210.306 15.7321 210.007 15.9881C209.751 16.2441 209.41 16.3721 208.983 16.3721H206.551Z" fill="#D34135"/>
<path fill-rule="evenodd" clip-rule="evenodd" d="M16.1025 4.25897C17.6196 1.62401 20.4285 0 23.4689 0H53.3754C56.4158 0 59.2247 1.62391 60.7417 4.25875L75.7117 30.2587C77.2233 32.8842 77.2233 36.1158 75.7117 38.7413L60.7417 64.7413C59.2247 67.3761 56.4158 69 53.3754 69H23.4689C20.4285 69 17.6196 67.376 16.1025 64.741L1.13361 38.741C-0.377871 36.1157 -0.377871 32.8843 1.13361 30.259L16.1025 4.25897ZM23.4689 3C21.5016 3 19.684 4.05083 18.7024 5.7558L3.73351 31.7558C2.7555 33.4546 2.7555 35.5454 3.73351 37.2442L18.7024 63.2442C19.684 64.9492 21.5016 66 23.4689 66H53.3754C55.3427 66 57.1602 64.9492 58.1418 63.2443L73.1118 37.2443C74.0899 35.5455 74.0899 33.4545 73.1118 31.7557L58.1419 5.75566C57.1602 4.05077 55.3427 3 53.3754 3H23.4689Z" fill="#D34135"/>
<path fill-rule="evenodd" clip-rule="evenodd" d="M33.9228 13V23.5C33.9228 24.3284 33.2512 25 32.4228 25C31.5944 25 30.9228 24.3284 30.9228 23.5V12.5C30.9228 11.1193 32.0421 10 33.4228 10H42.9228C44.3035 10 45.4228 11.1193 45.4228 12.5V23.5C45.4228 24.3284 44.7512 25 43.9228 25C43.0944 25 42.4228 24.3284 42.4228 23.5V13H33.9228ZM16.9228 30V38.5H27.4228C28.2512 38.5 28.9228 39.1716 28.9228 40C28.9228 40.8284 28.2512 41.5 27.4228 41.5H16.4228C15.0421 41.5 13.9228 40.3807 13.9228 39V29.5C13.9228 28.1193 15.0421 27 16.4228 27H41.3292C42.244 27 43.0858 27.4997 43.5239 28.3029L45.9894 32.823C46.3813 33.5414 46.3967 34.4062 46.0308 35.1382L45.2644 36.6708C44.8939 37.4118 43.9929 37.7121 43.252 37.3416C42.511 36.9712 42.2107 36.0701 42.5812 35.3292L43.2306 34.0302L41.0323 30H16.9228Z" fill="#4D4D4D"/>
<path fill-rule="evenodd" clip-rule="evenodd" d="M42.9228 56.5V46C42.9228 45.1716 43.5944 44.5 44.4228 44.5C45.2512 44.5 45.9228 45.1716 45.9228 46V57C45.9228 58.3807 44.8035 59.5 43.4228 59.5H33.9228C32.5421 59.5 31.4228 58.3807 31.4228 57V46C31.4228 45.1716 32.0944 44.5 32.9228 44.5C33.7512 44.5 34.4228 45.1716 34.4228 46V56.5H42.9228ZM59.9228 39.5V31H49.4228C48.5944 31 47.9228 30.3284 47.9228 29.5C47.9228 28.6716 48.5944 28 49.4228 28H60.4228C61.8035 28 62.9228 29.1193 62.9228 30.5V40C62.9228 41.3807 61.8035 42.5 60.4228 42.5H35.5164C34.6016 42.5 33.7598 42.0003 33.3217 41.1971L30.8562 36.677C30.4643 35.9586 30.4488 35.0938 30.8148 34.3618L31.5812 32.8292C31.9516 32.0882 32.8526 31.7879 33.5936 32.1584C34.3346 32.5288 34.6349 33.4299 34.2644 34.1708L33.6149 35.4698L35.8132 39.5H59.9228Z" fill="#4D4D4D"/>
<path d="M220.417 56.5001C219.99 56.5001 219.649 56.3721 219.393 56.1161C219.137 55.8601 219.009 55.5187 219.009 55.0921V13.1721C219.009 12.7027 219.137 12.3401 219.393 12.0841C219.649 11.8281 219.99 11.7001 220.417 11.7001H237.121C240.108 11.7001 242.54 12.2334 244.417 13.3001C246.337 14.3667 247.745 15.7747 248.641 17.5241C249.537 19.2307 249.985 21.1081 249.985 23.1561C249.985 24.9907 249.686 26.5694 249.089 27.8921C248.534 29.1721 247.809 30.2174 246.913 31.0281C246.06 31.8387 245.206 32.4574 244.353 32.8841C246.06 33.7374 247.574 35.1027 248.897 36.9801C250.22 38.8574 250.881 41.1401 250.881 43.8281C250.881 45.9614 250.369 48.0094 249.345 49.9721C248.364 51.8921 246.87 53.4707 244.865 54.7081C242.902 55.9027 240.47 56.5001 237.569 56.5001H220.417ZM223.041 52.6601H236.929C240.086 52.6601 242.518 51.8281 244.225 50.1641C245.974 48.5001 246.849 46.3881 246.849 43.8281C246.849 41.2254 245.974 39.1134 244.225 37.4921C242.518 35.8281 240.086 34.9961 236.929 34.9961H223.041V52.6601ZM223.041 31.1561H236.289C239.446 31.1561 241.836 30.4521 243.457 29.0441C245.121 27.6361 245.953 25.6734 245.953 23.1561C245.953 20.6387 245.121 18.7401 243.457 17.4601C241.836 16.1801 239.446 15.5401 236.289 15.5401H223.041V31.1561Z" fill="#474747"/>
<path d="M259.541 56.5001C259.115 56.5001 258.773 56.3721 258.517 56.1161C258.261 55.8601 258.133 55.5187 258.133 55.0921V12.4681C258.133 12.0414 258.261 11.7001 258.517 11.4441C258.773 11.1881 259.115 11.0601 259.541 11.0601H260.629C261.056 11.0601 261.397 11.1881 261.653 11.4441C261.909 11.7001 262.037 12.0414 262.037 12.4681V55.0921C262.037 55.5187 261.909 55.8601 261.653 56.1161C261.397 56.3721 261.056 56.5001 260.629 56.5001H259.541Z" fill="#474747"/>
<path d="M283.196 57.1401C280.124 57.1401 277.543 56.5001 275.452 55.2201C273.404 53.9401 271.826 52.1907 270.716 49.9721C269.65 47.7534 269.074 45.2787 268.988 42.5481C268.946 41.9081 268.924 41.0121 268.924 39.8601C268.924 38.7081 268.946 37.8121 268.988 37.1721C269.074 34.3987 269.65 31.9241 270.716 29.7481C271.826 27.5294 273.404 25.7801 275.452 24.5001C277.543 23.2201 280.124 22.5801 283.196 22.5801C286.268 22.5801 288.828 23.2201 290.876 24.5001C292.967 25.7801 294.546 27.5294 295.612 29.7481C296.722 31.9241 297.319 34.3987 297.404 37.1721C297.447 37.8121 297.468 38.7081 297.468 39.8601C297.468 41.0121 297.447 41.9081 297.404 42.5481C297.319 45.2787 296.722 47.7534 295.612 49.9721C294.546 52.1907 292.967 53.9401 290.876 55.2201C288.828 56.5001 286.268 57.1401 283.196 57.1401ZM283.196 53.4281C286.183 53.4281 288.615 52.4681 290.492 50.5481C292.37 48.6281 293.372 45.8547 293.5 42.2281C293.543 41.5881 293.564 40.7987 293.564 39.8601C293.564 38.9214 293.543 38.1321 293.5 37.4921C293.372 33.8227 292.37 31.0494 290.492 29.1721C288.615 27.2521 286.183 26.2921 283.196 26.2921C280.21 26.2921 277.778 27.2521 275.9 29.1721C274.023 31.0494 273.02 33.8227 272.892 37.4921C272.85 38.1321 272.828 38.9214 272.828 39.8601C272.828 40.7987 272.85 41.5881 272.892 42.2281C273.02 45.8547 274.023 48.6281 275.9 50.5481C277.778 52.4681 280.21 53.4281 283.196 53.4281Z" fill="#474747"/>
<path d="M316.9 57.1401C313.913 57.1401 311.374 56.5641 309.284 55.4121C307.193 54.2174 305.593 52.5107 304.484 50.2921C303.417 48.0734 302.841 45.4494 302.756 42.4201C302.713 41.7801 302.692 40.9267 302.692 39.8601C302.692 38.7934 302.713 37.9401 302.756 37.3001C302.841 34.2281 303.417 31.6041 304.484 29.4281C305.593 27.2094 307.193 25.5241 309.284 24.3721C311.374 23.1774 313.913 22.5801 316.9 22.5801C319.161 22.5801 321.102 22.9001 322.724 23.5401C324.388 24.1374 325.753 24.9481 326.82 25.9721C327.887 26.9534 328.697 28.0414 329.252 29.2361C329.806 30.4307 330.105 31.6041 330.148 32.7561C330.191 33.1827 330.063 33.5241 329.764 33.7801C329.465 34.0361 329.124 34.1641 328.74 34.1641H327.844C327.417 34.1641 327.097 34.0787 326.884 33.9081C326.713 33.6947 326.521 33.3321 326.308 32.8201C325.412 30.3881 324.175 28.7027 322.596 27.7641C321.06 26.7827 319.161 26.2921 316.9 26.2921C313.999 26.2921 311.588 27.1881 309.668 28.9801C307.79 30.7294 306.788 33.6094 306.66 37.6201C306.575 39.1134 306.575 40.6067 306.66 42.1001C306.788 46.1107 307.79 49.0121 309.668 50.8041C311.588 52.5534 313.999 53.4281 316.9 53.4281C319.161 53.4281 321.06 52.9587 322.596 52.0201C324.175 51.0387 325.412 49.3321 326.308 46.9001C326.521 46.3881 326.713 46.0467 326.884 45.8761C327.097 45.6627 327.417 45.5561 327.844 45.5561H328.74C329.124 45.5561 329.465 45.6841 329.764 45.9401C330.063 46.1961 330.191 46.5374 330.148 46.9641C330.105 47.9027 329.913 48.8414 329.572 49.7801C329.231 50.7187 328.697 51.6361 327.972 52.5321C327.289 53.4281 326.436 54.2174 325.412 54.9001C324.388 55.5827 323.15 56.1161 321.7 56.5001C320.292 56.9267 318.692 57.1401 316.9 57.1401Z" fill="#474747"/>
<path d="M338.156 56.5001C337.73 56.5001 337.388 56.3721 337.132 56.1161C336.876 55.8601 336.748 55.5187 336.748 55.0921V12.4681C336.748 12.0414 336.876 11.7001 337.132 11.4441C337.388 11.1881 337.73 11.0601 338.156 11.0601H339.244C339.671 11.0601 340.012 11.1881 340.268 11.4441C340.524 11.7001 340.652 12.0414 340.652 12.4681V35.1241L354.924 24.3081C355.522 23.8387 355.948 23.5401 356.204 23.4121C356.503 23.2841 356.972 23.2201 357.612 23.2201H358.828C359.212 23.2201 359.511 23.3481 359.724 23.6041C359.98 23.8174 360.108 24.1161 360.108 24.5001C360.108 24.6707 360.044 24.8841 359.916 25.1401C359.831 25.3534 359.618 25.5667 359.276 25.7801L343.084 38.0681L360.876 53.9401C361.431 54.4521 361.708 54.8787 361.708 55.2201C361.708 55.6041 361.58 55.9241 361.324 56.1801C361.111 56.3934 360.812 56.5001 360.428 56.5001H359.404C358.764 56.5001 358.295 56.4574 357.996 56.3721C357.74 56.2441 357.314 55.9241 356.716 55.4121L340.652 41.1401V55.0921C340.652 55.5187 340.524 55.8601 340.268 56.1161C340.012 56.3721 339.671 56.5001 339.244 56.5001H338.156Z" fill="#474747"/>
</svg>
